<?xml version="1.0" encoding="UTF-8" standalone="no"?>
<!-- Created with Inkscape (http://www.inkscape.org/) -->

<svg
   width="165mm"
   height="133mm"
   viewBox="0 0 165 133"
   version="1.1"
   id="svg1"
   xml:space="preserve"
   inkscape:export-filename="bitmap.png"
   inkscape:export-xdpi="96"
   inkscape:export-ydpi="96"
   xmlns:inkscape="http://www.inkscape.org/namespaces/inkscape"
   xmlns:sodipodi="http://sodipodi.sourceforge.net/DTD/sodipodi-0.dtd"
   xmlns="http://www.w3.org/2000/svg"
   xmlns:svg="http://www.w3.org/2000/svg"><sodipodi:namedview
     id="namedview1"
     pagecolor="#ffffff"
     bordercolor="#000000"
     borderopacity="0.25"
     inkscape:showpageshadow="2"
     inkscape:pageopacity="0.0"
     inkscape:pagecheckerboard="0"
     inkscape:deskcolor="#d1d1d1"
     inkscape:document-units="mm" /><defs
     id="defs1" /><g
     inkscape:label="Capa 1"
     inkscape:groupmode="layer"
     id="layer1"><path
       style="fill:#FFFFFF"
       d="m 139.05384,128.54482 c -0.94589,-0.0173 -5.58933,-0.0953 -10.31875,-0.17336 -20.63352,-0.34045 -70.308951,-1.44382 -80.433358,-1.78655 -1.091407,-0.0369 -4.306094,-0.12831 -7.14375,-0.20304 -2.837657,-0.0747 -5.351176,-0.16654 -5.5856,-0.20404 -0.495907,-0.0793 -0.379423,0.24636 -1.417482,-3.9632 -1.347849,-5.46581 -2.910809,-10.68133 -4.67715,-15.60741 -3.663154,-10.216012 -8.051886,-18.926162 -14.052049,-27.888562 -2.261925,-3.37862 -2.476262,-3.68665 -4.823525,-6.93206 -3.5692439,-4.93495 -5.9641278,-8.58764 -6.4365388,-9.81705 -0.20045,-0.52165 -0.302049,-1.14607 -0.346149,-2.12743 -0.07146,-1.59016 0.204691,-3.03583 0.885518,-4.63575 0.7823699,-1.83854 2.3622309,-3.89238 3.5104969,-4.56368 1.0979091,-0.64186 4.7164959,-1.34568 8.4546589,-1.64444 2.172003,-0.17359 8.821965,-0.17417 11.324799,-9.9e-4 9.702905,0.67137 20.630047,2.83963 27.912701,5.53868 0.618001,0.22904 1.143207,0.37065 1.167125,0.31469 0.02392,-0.056 0.47078,-0.9635 0.993028,-2.01676 0.863719,-1.74194 0.989775,-1.92779 1.394686,-2.05631 l 0.445145,-0.14128 -0.702276,-0.78797 c -0.386251,-0.43338 -0.846077,-0.94684 -1.021835,-1.14101 -0.181763,-0.20082 -0.277677,-0.42083 -0.222429,-0.51022 0.06383,-0.10328 0.533654,0.27376 1.370441,1.0998 0.973143,0.96064 1.374665,1.27043 1.703258,1.31412 0.236471,0.0314 0.429948,0.0174 0.429948,-0.0312 0,-0.0486 -0.360637,-0.60857 -0.801416,-1.24443 -0.74755,-1.07838 -0.908119,-1.51983 -0.587647,-1.61558 0.07276,-0.0217 0.54901,0.52517 1.058333,1.21536 0.509323,0.69019 0.995934,1.3482 1.081358,1.46225 0.187346,0.25011 1.626095,0.61473 7.253017,1.83811 3.653067,0.79423 3.585795,0.7697 3.929811,1.4332 0.238748,0.46048 0.285262,0.77289 0.283196,1.90211 l -0.0025,1.35113 0.606711,0.0744 c 2.768852,0.33937 4.170466,0.62353 5.190253,1.05224 0.17287,0.0727 0.26393,-0.0469 0.44057,-0.57879 0.20753,-0.6248 0.25229,-0.67039 0.65815,-0.67039 0.49353,0 0.45113,0.13256 0.74049,-2.3151 0.14511,-1.22755 0.18888,-1.35693 0.60707,-1.7946 l 0.45068,-0.47168 -0.408,-0.79111 c -0.29406,-0.57015 -0.43437,-1.06704 -0.50238,-1.77906 -0.0861,-0.90177 -0.17612,-1.13207 -1.03139,-2.63982 -0.51536,-0.90852 -1.52112,-2.69366 -2.235019,-3.96696 -0.713898,-1.27331 -1.406978,-2.47313 -1.540177,-2.66626 -0.315932,-0.45809 -0.307727,-1.05119 0.02031,-1.46822 0.3214,-0.4086 0.900886,-0.58031 1.140919,-0.33807 0.137899,0.13916 2.589707,4.02888 4.757927,7.54829 l 0.38711,0.62835 0.6688,-0.0781 c 1.44022,-0.16826 2.53903,0.54444 3.10562,2.01433 0.40356,1.04697 0.43892,2.86594 0.0741,3.81191 l -0.25253,0.65479 1.04628,0.9718 1.04629,0.97181 0.14063,-1.42816 c 0.0773,-0.78549 0.21421,-1.5773 0.30414,-1.75959 0.15154,-0.30716 0.0384,-0.5495 -1.54515,-3.31056 -0.93977,-1.63853 -2.14336,-3.81111 -2.67466,-4.82796 -0.5313,-1.01684 -1.07501,-2.00682 -1.20824,-2.19995 -0.37592,-0.54493 -0.31645,-1.24864 0.14446,-1.70955 0.39346,-0.39347 0.7224,-0.47615 1.05543,-0.26529 0.10195,0.0645 1.50761,2.21915 3.1237,4.788 3.15498,5.01502 2.97525,4.80519 4.19888,4.90191 l 0.56185,0.0444 0.0391,-0.7404 c 0.0375,-0.70999 0.02,-0.75498 -0.42632,-1.09537 -2.32827,-1.77586 -2.39381,-6.10575 -0.12674,-8.37282 0.83264,-0.83265 1.84513,-1.26738 3.124135,-1.34142 0.63697,-0.0369 1.02744,-0.11593 1.02671,-0.20787 -6.5e-4,-0.0816 -0.11074,-0.78833 -0.24466,-1.57051 l -0.24348,-1.422133 h 0.57538 0.57539 v -0.71107 c 0,-0.69056 -0.0119,-0.71345 -0.41341,-0.79375 -0.22738,-0.0455 -0.64058,-0.0827 -0.91823,-0.0827 -0.27766,0 -0.5423,-0.0606 -0.58811,-0.13476 -0.0458,-0.0741 -0.163535,-1.59 -0.261625,-3.36863 -0.0981,-1.77863 -0.21484,-3.29295 -0.25946,-3.36515 -0.0446,-0.0722 0.0101,-0.34952 0.12152,-0.61627 0.14667,-0.35104 0.20264,-0.95918 0.20264,-2.20172 0,-1.33337 0.0496,-1.82125 0.222165,-2.18487 l 0.22216,-0.46816 0.23913,0.29533 c 0.28727,0.35476 0.4316,0.86521 0.77639,2.74594 0.29769,1.62378 0.61932,2.81595 0.75975,2.8161 0.0525,6e-5 0.0779,-1.60728 0.0564,-3.57187 -0.0236,-2.15447 0.01,-3.57198 0.0845,-3.57198 0.1546,0 0.18149,0.15698 0.69132,4.03489 0.22958,1.74625 0.435503,3.19479 0.457613,3.21898 0.0221,0.0242 0.578242,-0.3178 1.235842,-0.75997 1.351671,-0.90886 1.205461,-0.58964 1.550431,-3.38505 0.11672,-0.94588 0.23975,-1.76444 0.27339,-1.81901 0.088,-0.14272 1.15835,-0.12225 1.55828,0.0298 l 0.33934,0.12902 v 8.31919 c 0,4.57555 0.0359,8.580503 0.0799,8.899893 l 0.0799,0.58071 1.73915,0.81868 c 0.95653,0.45028 1.77581,0.7777 1.82063,0.72761 0.0448,-0.0501 0.27428,-2.16556 0.5099,-4.70102 l 0.42841,-4.609933 -0.17041,-3.45986 c -0.24449,-4.96402 -0.24347,-9.50316 0.002,-9.79956 0.54362,-0.65586 2.38929,-1.21389 3.57226,-1.08005 l 0.76377,0.0864 0.0839,-0.69896 c 0.0462,-0.38443 0.0845,-0.86668 0.0851,-1.07167 10e-4,-0.45354 0.006,-0.45466 -2.08618,0.47445 -0.82061,0.36437 -1.52201,0.63249 -1.55867,0.59583 -0.0367,-0.0367 -0.17783,-0.45539 -0.3137,-0.93052 l -0.24705,-0.86388 0.9789,-1.54813 c 0.53839,-0.851469 0.9789,-1.565569 0.9789,-1.586886 0,-0.02132 -0.63997,-0.409351 -1.42214,-0.862297 -0.78217,-0.4529473 -1.94299,-1.1493443 -2.57958,-1.5475503 l -1.15745,-0.72401 0.0844,-1.344229 c 0.0464,-0.739327 0.10184,-1.364968 0.12315,-1.390314 0.0213,-0.02535 1.84363,0.06921 4.0496,0.210133 2.20597,0.140919 4.03436,0.23738 4.06307,0.214357 0.0287,-0.02302 0.0812,-0.343531 0.11663,-0.712242 0.0547,-0.569728 0.0186,-0.719136 -0.24064,-0.995096 l -0.30505,-0.324714 h 0.35379 c 0.30689,0 0.35642,-0.057 0.37361,-0.429948 l 0.0198,-0.429948 0.0553,0.396875 c 0.0304,0.218282 0.18022,0.4939 0.33292,0.612485 l 0.27762,0.215609 -0.28659,0.09096 c -0.20429,0.06484 -0.2866,0.197639 -0.2866,0.462385 0,0.204283 -0.0372,0.557459 -0.0827,0.784835 l -0.0827,0.413412 h 0.73873 c 0.40631,0 1.18766,-0.06677 1.73633,-0.148373 l 0.99759,-0.148374 v -0.498105 -0.498106 l -0.89297,-0.164397 c -1.20245,-0.221375 -1.52482,-0.43298 -0.49609,-0.325644 0.43656,0.04555 0.9277,0.114625 1.09141,0.1535 0.26594,0.06315 0.29765,0.02078 0.29765,-0.397766 0,-0.352261 -0.0656,-0.489275 -0.26458,-0.552423 -0.35677,-0.113233 -0.3359,-0.28811 0.0328,-0.275087 0.2411,0.0085 0.31076,-0.07716 0.36794,-0.452517 l 0.0705,-0.463021 0.0955,0.529167 c 0.0525,0.291042 0.13401,1.050065 0.18104,1.686719 0.0519,0.703231 0.14263,1.157091 0.23105,1.156378 0.0801,-6.46e-4 0.8004,-0.113777 1.60077,-0.251401 0.80036,-0.137625 1.47285,-0.233556 1.49441,-0.21318 0.0216,0.02038 0.10271,0.621484 0.18033,1.335793 l 0.14113,1.298745 -1.17252,1.063559 c -0.64489,0.584957 -1.51489,1.391786 -1.93335,1.7929523 l -0.76084,0.729393 -0.15845,3.468381 c -0.0872,1.90761 -0.1307,3.49614 -0.0968,3.53007 0.0521,0.0521 3.0138,0.47603 3.32583,0.47603 0.17924,0 0.11557,0.38614 -0.14926,0.90524 -0.28533,0.55931 -0.72794,0.81455 -1.4125,0.81455 h -0.46339 l 0.0397,0.76068 0.0397,0.76067 2.37149,0.0362 c 1.80873,0.0276 2.39688,-0.004 2.47845,-0.13229 0.17998,-0.2836 0.12356,-1.11787 -0.0874,-1.29299 -0.25098,-0.20829 -0.25515,-0.39687 -0.009,-0.39687 0.10693,0 0.20791,-0.15424 0.23151,-0.3536 0.064,-0.54083 0.37259,-0.55293 0.37259,-0.0146 0,0.24617 0.0729,0.52051 0.16205,0.60963 0.12787,0.12788 0.12787,0.21678 0,0.42154 -0.0902,0.1444 -0.16205,0.69689 -0.16205,1.24566 0,0.58957 -0.06,1.02328 -0.14928,1.07844 -0.10119,0.0625 -0.0767,0.13288 0.0761,0.21837 0.29329,0.16414 0.3382,0.10601 0.39341,-0.50925 0.0276,-0.30753 0.11457,-0.51337 0.21692,-0.51337 0.16181,0 0.18873,0.2166 0.14195,1.14207 l -0.0176,0.34833 -2.55911,-0.0694 -2.5591,-0.0694 -0.0905,1.11017 c -0.0757,0.92847 -0.28591,1.66005 -1.28427,4.46991 -0.65656,1.84785 -1.17575,3.51473 -1.15376,3.70416 0.031,0.26715 0.12338,0.354 0.41161,0.38705 0.43729,0.0501 0.46422,0.10981 0.51538,1.14175 l 0.0391,0.7875 0.59531,0.14413 c 0.56049,0.1357 0.59771,0.17282 0.63637,0.634643 0.0255,0.30483 0.10906,0.49051 0.22069,0.49051 0.0988,0 0.26503,0.0328 0.36941,0.0728 0.15256,0.0586 0.20768,-0.16441 0.28111,-1.137123 0.0565,-0.74877 0.0411,-1.27046 -0.0404,-1.36872 -0.15857,-0.19107 0.19881,-5.17781 0.39387,-5.49595 0.082,-0.13377 0.0973,0.68202 0.0433,2.30657 l -0.0836,2.51355 0.3464,0.32071 c 0.19052,0.1764 0.35384,0.28058 0.36294,0.23151 0.009,-0.0491 0.0314,-0.14873 0.0496,-0.22149 0.0182,-0.0728 0.0405,-0.33593 0.0496,-0.58481 0.0141,-0.38476 0.0732,-0.46495 0.39515,-0.53566 0.20824,-0.0457 0.65075,-0.0146 0.98336,0.0691 l 0.60474,0.15228 -0.0545,0.87949 c -0.14881,2.401603 -0.17049,3.591463 -0.0654,3.591463 0.0638,0 0.2101,0.0361 0.3252,0.0803 0.18137,0.0696 0.20925,-0.0802 0.20925,-1.12448 0,-1.161803 0.0106,-1.204713 0.29766,-1.202753 0.65859,0.004 0.65085,-0.0591 0.49846,4.095823 -0.0782,2.13193 -0.12336,3.89505 -0.10036,3.91805 0.0656,0.0656 7.28313,0.71806 7.33782,0.66337 0.0651,-0.0651 0.70275,-3.8351 1.24421,-7.35635 0.51956,-3.378763 0.57186,-3.284373 0.69636,1.25677 0.0938,3.42218 0.22239,6.32771 0.28295,6.39446 0.12346,0.13609 2.67594,0.69092 3.02307,0.65712 l 0.41202,-0.0401 0.0661,-1.05833 c 0.0581,-0.92987 0.0862,-1.02326 0.23151,-0.76938 0.094,0.16425 0.16536,0.74053 0.16536,1.33529 v 1.04633 l -1.02526,0.39964 c -2.28082,0.88903 -3.27529,1.0963 -6.40418,1.33475 l -2.95545,0.22524 -0.0844,1.25677 c -0.0464,0.69123 -0.0911,2.90695 -0.0992,4.92383 l -0.0148,3.66707 0.9926,0.6698 c 0.54593,0.36839 1.07397,0.70102 1.17342,0.73919 0.146,0.056 0.19232,-0.29081 0.24052,-1.8009 0.0714,-2.23887 0.0918,-2.26798 1.3307,-1.89994 0.19381,0.0576 0.23151,-0.0188 0.23151,-0.4693 0,-0.29594 0.0595,-0.53808 0.13229,-0.53808 0.0789,0 0.13624,0.54673 0.1421,1.35599 0.0169,2.33717 0.0151,2.33271 1.33136,3.32415 l 1.14273,0.86075 0.0917,-0.97905 0.0917,-0.97904 0.37734,0.0755 c 0.35296,0.0706 0.38291,0.0425 0.46379,-0.43541 0.12311,-0.72734 0.20031,-0.97389 0.30497,-0.97389 0.0503,0 0.25619,0.64636 0.45748,1.43635 l 0.36599,1.43636 -0.20876,2.7639 c -0.27701,3.66739 -0.27395,3.64995 -0.63234,3.59894 -0.19657,-0.028 -0.30278,-0.14793 -0.32939,-0.37201 -0.029,-0.24457 -0.1788,-0.38989 -0.57483,-0.55779 l -0.53556,-0.22707 0.0431,-1.45621 0.0431,-1.45621 -1.20819,-0.58804 -1.20819,-0.58804 -0.0955,1.78273 c -0.13064,2.43907 -0.0798,2.74434 0.66185,3.97077 0.34524,0.57095 0.64457,1.0566 0.66517,1.07923 0.0206,0.0226 0.4071,0.0934 0.85888,0.15726 0.98319,0.13897 1.35216,0.41848 1.29655,0.98219 -0.0294,0.29821 -0.1583,0.46871 -0.50512,0.66822 l -0.46562,0.26785 0.1077,0.8599 c 0.13388,1.06894 0.0218,5.5108 -0.26203,10.3849 -0.24481,4.2039 -0.31196,12.01658 -0.10505,12.22177 0.0728,0.0721 0.44483,0.17229 0.82683,0.22253 0.65583,0.0863 0.69453,0.0751 0.69453,-0.20092 0,-0.21944 -0.13547,-0.34548 -0.54362,-0.50581 l -0.54362,-0.21354 0.0819,-0.60264 c 0.045,-0.33145 0.50333,-2.8053 1.01844,-5.49743 0.51512,-2.69214 1.07324,-5.62711 1.24026,-6.52217 0.16703,-0.89506 0.33632,-1.66001 0.37621,-1.6999 0.0399,-0.0399 0.28488,-0.002 0.54442,0.0832 0.44108,0.14557 0.47188,0.1919 0.47188,0.70981 0,0.30475 -0.15178,1.80329 -0.3373,3.33011 -0.81576,6.71378 -0.98284,8.23948 -0.97042,8.86145 0.007,0.3638 0.21171,-1.02677 0.45434,-3.09015 0.40755,-3.46596 0.5888,-4.53591 0.5888,-3.47579 0,0.23291 -0.15244,2.29884 -0.33875,4.59096 -0.34036,4.18729 -0.36278,5.03924 -0.13137,4.99228 0.0688,-0.014 0.19443,-0.25993 0.27907,-0.54656 0.12225,-0.41404 0.11691,-0.60908 -0.026,-0.9489 -0.25793,-0.61345 -0.22309,-0.97208 0.12634,-1.30035 0.88752,-0.83378 2.78605,0.11093 3.65809,1.82026 0.25425,0.49836 0.55554,1.85068 0.45027,2.021 -0.0324,0.0525 0.19281,0.27789 0.50059,0.50084 0.43781,0.31714 0.76903,0.78594 1.52205,2.154218 l 0.96248,1.74885 0.004,2.149744 c 0.003,1.34208 0.054,2.14974 0.13663,2.14974 0.0744,0 0.13118,-0.36211 0.12975,-0.82682 -0.005,-1.58523 0.4316,-17.496002 0.48146,-17.550702 0.17845,-0.19577 0.18789,0.61731 0.0577,4.97138 -0.373,12.473862 -0.3928,13.470582 -0.26998,13.593402 0.0692,0.0692 0.15673,0.0949 0.1945,0.0572 0.0515,-0.0515 0.31098,-5.129114 0.32989,-6.455522 0.002,-0.11536 0.0472,-0.14173 0.11427,-0.0661 0.0613,0.0691 0.062,1.613958 0.002,3.432968 -0.0605,1.819014 -0.0858,3.373854 -0.0562,3.455204 0.0295,0.0814 0.45004,0.36956 0.93445,0.64045 0.90134,0.50406 1.06437,0.74369 0.33235,0.4885 -0.51473,-0.17943 -0.55591,-0.0894 -0.50336,1.10099 l 0.0396,0.89638 2.69378,1.84271 c 1.48158,1.0135 2.71067,1.82461 2.73131,1.80247 0.10039,-0.10767 0.21378,-6.50888 0.11364,-6.41552 -0.0631,0.0588 -0.23541,0.62061 -0.38286,1.24835 l -0.26808,1.14135 -0.42135,-0.57296 -0.42136,-0.57295 0.87266,-1.66759 c 0.47996,-0.91717 0.91672,-1.71671 0.97058,-1.77675 0.22673,-0.25276 0.26679,1.31188 0.12835,5.01407 -0.12098,3.23552 -0.11618,3.95619 0.0269,4.03862 0.0958,0.0552 0.76215,0.50978 1.48082,1.01022 l 1.30669,0.90988 0.0219,2.14189 c 0.012,1.17803 5e-4,2.14188 -0.0256,2.14188 -0.0461,0 -6.08531,-4.31712 -8.3643,-5.97917 -1.82072,-1.32784 -12.02208,-8.81376 -13.03073,-9.56217 -0.50933,-0.37791 -2.14644,-1.569574 -3.63802,-2.648144 -1.49159,-1.07856 -3.42636,-2.477768 -4.29948,-3.109328 -7.5273,-5.44483 -16.15595,-11.38112 -22.48959,-15.47228 -0.94588,-0.61099 -2.28534,-1.47916 -2.97656,-1.92927 -1.350091,-0.87916 -2.234526,-1.42309 -6.548451,-4.02738 -19.220754,-11.60348 -36.216736,-18.98958 -51.452014,-22.35995 -1.720408,-0.38059 -6.394309,-1.27262 -7.285491,-1.39046 -7.621661,-1.0078 -14.541613,-1.13686 -20.835937,-0.3886 -2.202382,0.26181 -5.0671688,0.73044 -5.1997078,0.85058 -0.05856,0.0531 0.689619,1.31067 1.6626268,2.79462 12.222905,18.64146 19.997672,36.60671 23.037719,53.233532 0.37036,2.02559 1.00457,6.48472 1.00457,7.06312 0,0.16406 -0.06558,0.15756 9.525,0.94414 7.888374,0.64696 23.616984,2.04529 27.516667,2.44632 1.055026,0.10849 3.13862,0.31385 4.630208,0.45635 3.786079,0.3617 9.004609,0.89271 11.046359,1.12403 0.94589,0.10716 2.61276,0.28675 3.70417,0.39908 5.220105,0.53728 19.469691,2.15199 23.897671,2.70798 0.53252,0.0669 0.99134,0.0985 1.0196,0.0702 0.11176,-0.11175 -3.30126,-4.59011 -5.54339,-7.27371 -7.63537,-9.13872 -18.552401,-18.872742 -31.059481,-27.693752 -7.47504,-5.27201 -16.980287,-11.18275 -25.025345,-15.56175 -0.909506,-0.49506 -1.921537,-1.04853 -2.248959,-1.22995 -4.581543,-2.53855 -12.636149,-6.54807 -18.851562,-9.38416 -1.67349,-0.76362 -3.459427,-1.58303 -3.96875,-1.82092 -0.509323,-0.23789 -1.253464,-0.56496 -1.653646,-0.72684 -1.194944,-0.48335 -1.290146,-0.52294 -3.902604,-1.62314 -3.946887,-1.66216 -9.779372,-3.92747 -12.886,-5.00486 -1.9078608,-0.66166 -1.7165198,-0.65934 2.368812,0.0286 6.689262,1.12643 11.679442,2.20067 18.520834,3.98698 8.013546,2.09237 17.880237,5.53125 26.6361,9.2836 10.204522,4.37317 23.24016,11.12684 33.29203,17.24836 1.12779,0.68681 2.40771,1.45714 2.84427,1.71184 0.43657,0.2547 1.103285,0.64801 1.481595,0.87402 0.3783,0.226 1.02531,0.60888 1.4378,0.85084 1.377655,0.80811 12.007206,7.45109 13.683226,8.55139 0.9095,0.59709 1.71949,1.11026 1.79997,1.14038 0.0805,0.0301 0.88416,0.52131 1.78594,1.09153 0.90178,0.570218 3.33625,2.101098 5.40992,3.401958 2.07367,1.300854 3.94891,2.481154 4.16719,2.622894 0.21828,0.14174 1.43867,0.89509 2.71198,1.67411 1.2733,0.77903 2.61276,1.60875 2.97656,1.84383 0.78701,0.50855 7.05959,4.23331 9.59115,5.69537 6.40957,3.70176 11.41682,6.41541 16.86718,9.1411 2.25558,1.12799 4.156,2.12972 4.22316,2.22607 0.19806,0.28412 -0.49091,1.51358 -1.45606,2.59835 -1.00104,1.1251 -1.39644,1.70109 -1.64925,2.40252 l -0.17881,0.4961 -8.27473,-0.0288 c -4.5511,-0.0158 -9.04863,-0.0429 -9.99451,-0.0602 z m 15.54427,-15.2305 c 0,-0.61952 -0.0143,-0.64204 -0.58203,-0.91787 l -0.58202,-0.28277 -0.0776,0.28948 c -0.19228,0.717 -0.10037,0.95535 0.481,1.2474 0.30923,0.15534 0.60689,0.28613 0.66146,0.29065 0.0546,0.005 0.0992,-0.27759 0.0992,-0.62689 z m -1.45521,-1.01586 c 0,-0.55821 -0.0307,-0.60831 -0.52917,-0.86259 l -0.52917,-0.26996 -0.0198,0.46571 c -0.0109,0.25614 -0.0258,0.54012 -0.0331,0.63107 -0.0118,0.14775 0.76134,0.62766 1.01203,0.62818 0.0546,1.2e-4 0.0992,-0.26647 0.0992,-0.59241 z m -1.5875,-0.64762 c 0,-0.10004 0.0372,-0.36792 0.0827,-0.59528 0.0797,-0.39848 0.0557,-0.4253 -0.66523,-0.74414 -0.41135,-0.18192 -0.77597,-0.33076 -0.81028,-0.33076 -0.0343,0 -0.0624,0.26675 -0.0624,0.59278 0,0.57307 0.0209,0.60365 0.62838,0.91988 0.7366,0.38344 0.82683,0.40063 0.82683,0.15752 z m -1.69844,-1.97518 c -0.0762,-0.0918 -0.37407,-0.29933 -0.66188,-0.46109 l -0.52331,-0.29411 -0.0485,0.6095 c -0.0481,0.60501 -0.0441,0.61175 0.54884,0.91469 l 0.59732,0.30519 0.11304,-0.4536 c 0.0719,-0.28856 0.0626,-0.51436 -0.0255,-0.62058 z m -3.95387,-4.42442 c 0.0582,-0.8399 0.0328,-1.05516 -0.14018,-1.19063 -0.11617,-0.091 -0.25167,-0.16536 -0.30113,-0.16536 -0.0495,0 -0.1322,0.48463 -0.18387,1.07697 -0.0727,0.83284 -0.054,1.10228 0.0821,1.1886 0.38739,0.24557 0.47295,0.10226 0.54305,-0.90958 z m -9.1646,-5.556264 -2.4e-4,-1.81901 -1.2896,-0.82149 c -0.70929,-0.451818 -1.30828,-0.767878 -1.33109,-0.702358 -0.0228,0.0655 0.23019,1.025878 0.56224,2.134118 0.33205,1.10824 0.60372,2.087994 0.60372,2.177214 0,0.17299 1.01271,0.83673 1.28985,0.84538 0.12453,0.004 0.1653,-0.44395 0.16512,-1.813854 z m -7.54064,-38.827598 c -2.4e-4,-0.52265 -0.0447,-0.59252 -0.63112,-0.99219 -0.74025,-0.5045 -0.82383,-0.52047 -0.82383,-0.15744 0,0.21813 1.2288,1.71187 1.40825,1.71187 0.0258,0 0.0468,-0.25301 0.0467,-0.56224 z m -2.99095,-7.53125 c -0.0369,-0.0597 -0.18668,-0.10859 -0.33281,-0.10859 -0.18962,0 -0.24707,0.0663 -0.20065,0.23151 0.0358,0.12733 0.14335,0.67799 0.23905,1.22369 l 0.174,0.99219 0.0938,-1.1151 c 0.0516,-0.61331 0.0636,-1.16397 0.0266,-1.2237 z m 0.0813,-1.46458 c 2.7e-4,-0.60028 0.0396,-1.94728 0.0875,-2.99334 l 0.087,-1.90192 -0.87616,0.0558 c -0.48188,0.0307 -0.91266,0.0923 -0.95728,0.13691 -0.15081,0.15081 0.8947,5.45253 1.10997,5.6286 0.45172,0.36944 0.54848,0.20622 0.54898,-0.92604 z m -6.61506,-4.79558 c 0,-0.40018 0.003,-0.77225 0.007,-0.82682 0.007,-0.10772 -0.83038,-0.31168 -0.9184,-0.22366 -0.0788,0.0788 0.6958,1.77034 0.81263,1.77453 0.0546,0.002 0.0992,-0.32387 0.0992,-0.72405 z m 6.16423,-1.55607 c 0.0188,-0.0188 0.0533,-0.27163 0.0769,-0.56193 l 0.0428,-0.52783 -0.95911,-0.0389 c -1.06042,-0.043 -1.0613,-0.0421 -0.87308,0.899 l 0.086,0.43017 0.79622,-0.0832 c 0.43792,-0.0458 0.81156,-0.0986 0.83032,-0.11732 z m 1.95093,-0.45822 c 0.044,-0.27112 0.0303,-0.54261 -0.0304,-0.60332 -0.0607,-0.0607 -0.40145,-0.0919 -0.75721,-0.0693 l -0.64684,0.0411 -0.0407,0.56224 -0.0407,0.56224 h 0.7179 0.7179 z m 1.67442,-0.16852 v -0.52917 h -0.59531 c -0.54144,0 -0.59532,0.0289 -0.59532,0.31991 0,0.17595 -0.0361,0.41408 -0.0803,0.52917 -0.0668,0.17398 0.0336,0.20926 0.59532,0.20926 h 0.67561 z m 1.65365,0.004 c 0,-0.44353 -0.0185,-0.46033 -0.55737,-0.50548 -0.50529,-0.0423 -0.56533,-0.0149 -0.64265,0.29312 -0.14672,0.58455 0.008,0.75733 0.63657,0.71187 0.54692,-0.0395 0.56345,-0.0542 0.56345,-0.49951 z m -11.16175,-0.79338 0.0367,-0.72298 -0.45676,-0.0878 c -1.41086,-0.27115 -1.31665,-0.28055 -1.31665,0.13146 0,0.9724 0.11846,1.16579 0.84074,1.3725 0.37434,0.10713 0.7208,0.15766 0.76992,0.11229 0.0491,-0.0454 0.10583,-0.40784 0.12603,-0.80548 z m -2.47663,-3.51675 c -0.31497,-3.3641 -0.35719,-3.61578 -0.7474,-4.45608 -0.22747,-0.48983 -0.43381,-0.870363 -0.45855,-0.845633 -0.0247,0.0247 0.0766,1.407773 0.22514,3.073423 0.24792,2.77965 0.31043,3.14461 0.76095,4.44252 0.26996,0.77774 0.50498,1.39994 0.52226,1.38266 0.0173,-0.0173 -0.1188,-1.63589 -0.3024,-3.59689 z m 15.82119,2.2697 c 0,-0.95751 -0.008,-0.97965 -0.3638,-1.06462 -0.2001,-0.0477 -0.46055,-0.11535 -0.57879,-0.1503 -0.17632,-0.0521 -0.24067,0.10952 -0.35779,0.89865 -0.0785,0.5292 -0.10087,1.00334 -0.0496,1.05365 0.0513,0.0503 0.3611,0.11459 0.68852,0.14286 0.32742,0.0283 0.61019,0.0618 0.62838,0.0745 0.0182,0.0127 0.0331,-0.41691 0.0331,-0.95473 z m -18.65313,-2.30776 v -1.96268 l -0.76067,-0.21154 c -0.41838,-0.11634 -0.86486,-0.25153 -0.99219,-0.30042 -0.21413,-0.0822 -0.23151,0.0597 -0.23151,1.88974 v 1.97864 l 0.95911,0.27278 c 0.52752,0.15003 0.974,0.27805 0.99219,0.28448 0.0182,0.006 0.0331,-0.87152 0.0331,-1.951 z m 5.47887,1.40045 c 0.0695,-0.34518 0.34197,-3.22895 0.34197,-3.61974 0,-0.21833 -0.23918,-0.34117 -1.38605,-0.71184 -0.76233,-0.24638 -1.42705,-0.40697 -1.47717,-0.35686 -0.0846,0.0846 0.1382,3.24583 0.30664,4.3505 0.0816,0.53508 0.16415,0.56826 1.5288,0.61442 0.55128,0.0186 0.633,-0.0143 0.68581,-0.27648 z m -7.92333,-2.15971 c 0.0534,-0.99783 0.0448,-1.84569 -0.0195,-1.90793 -0.0636,-0.0616 -0.3322,-0.15179 -0.59681,-0.20038 l -0.48111,-0.0884 -0.0856,1.2356 c -0.0471,0.67959 -0.11798,1.51138 -0.15755,1.84843 l -0.0719,0.61281 0.50637,0.13419 c 0.2785,0.0738 0.57468,0.14035 0.65817,0.14787 0.1032,0.009 0.18262,-0.56149 0.248,-1.78224 z m 21.01848,0.15985 c 0.052,-1.00433 0.0323,-1.15236 -0.14916,-1.11685 -0.30242,0.0592 -0.6811,0.87222 -0.72558,1.55786 -0.0365,0.56225 -0.0191,0.59472 0.35854,0.66981 0.21828,0.0434 0.41022,0.0717 0.42655,0.0629 0.0163,-0.009 0.0567,-0.53698 0.0896,-1.17376 z m -23.21838,-0.69345 c 0.089,-0.91743 0.13722,-1.69257 0.10725,-1.72253 -0.03,-0.03 -0.35043,0.009 -0.71213,0.0865 l -0.65764,0.14104 -0.15617,1.34998 c -0.22598,1.95355 -0.2687,1.81301 0.55115,1.81301 h 0.70581 z m 10.69077,-3.06138 c 0.12228,-1.493853 0.1165,-1.563333 -0.14838,-1.782993 -0.1516,-0.12572 -0.32028,-0.2299 -0.37485,-0.23151 -0.12261,-0.004 -0.13325,3.358513 -0.011,3.480733 0.30446,0.30447 0.41388,0.004 0.53425,-1.46623 z m -6.07381,-1.832913 -0.0387,-1.01819 -0.85882,-0.23469 c -0.47234,-0.12908 -0.86612,-0.22428 -0.87507,-0.21156 -0.009,0.0127 -0.056,0.85687 -0.10452,1.87589 l -0.0883,1.852753 0.96333,0.27542 0.96334,0.27543 0.0387,-0.89843 c 0.0213,-0.49414 0.0213,-1.356623 0,-1.916623 z m -14.623641,1.965203 c 0.113651,-0.12733 0.276711,-0.49457 0.362351,-0.81608 0.18976,-0.712423 0.40611,-3.465083 0.28678,-3.648763 -0.11233,-0.1729 -0.25933,0.95089 -0.274,2.09462 -0.008,0.66046 -0.0561,0.88918 -0.17695,0.84902 -0.1208,-0.0402 -0.17519,-0.61447 -0.201821,-2.13114 l -0.0365,-2.07615 0.350741,-0.3017 c 0.34303,-0.29505 0.34598,-0.3109 0.1343,-0.72024 -0.11904,-0.2302 -0.33097,-0.47984 -0.470951,-0.55476 -0.40438,-0.21641 -1.16393,-0.15895 -1.732395,0.13106 -0.63374,0.32331 -0.62859,0.25112 -0.25932,3.63533 0.14291,1.30969 0.2609,2.4506 0.26221,2.53536 0.002,0.153923 1.275475,1.234953 1.454365,1.234953 0.052,0 0.18749,-0.10418 0.30114,-0.23151 z m 12.552041,-1.748073 0.0385,-1.78115 -0.32575,-0.0908 c -0.74323,-0.20722 -0.76046,-0.18877 -0.84841,0.90806 -0.0452,0.5639 -0.1149,1.36092 -0.15486,1.771163 l -0.0726,0.74589 0.57352,0.19669 c 0.31543,0.10817 0.61346,0.15947 0.66229,0.114 0.0488,-0.0455 0.10613,-0.8842 0.12732,-1.863833 z m -14.769956,-0.50088 c -0.10856,-0.81082 -0.15878,-0.95912 -0.32481,-0.95912 -0.0786,0 -0.13645,0.33668 -0.13645,0.79375 0,0.71342 0.0276,0.79375 0.27269,0.79375 0.24893,0 0.26536,-0.0548 0.18857,-0.62838 z m 19.755086,-0.26459 c -0.0329,-0.28574 -0.11991,-0.37278 -0.40566,-0.40566 -0.31078,-0.0358 -0.3638,0.006 -0.3638,0.28796 0,0.20286 0.0891,0.3531 0.23151,0.39031 0.50558,0.13212 0.58017,0.0943 0.53795,-0.27261 z m 0.001,-11.96148 c 0.0852,-0.95808 0.1401,-1.75338 0.12197,-1.76733 -0.0181,-0.0139 -0.18776,-0.0624 -0.37697,-0.10768 l -0.34401,-0.0823 -0.0853,1.2874 c -0.14856,2.24337 -0.13309,2.41187 0.22136,2.41187 0.29901,0 0.31249,-0.0507 0.4629,-1.74195 z m -0.88017,-0.91998 c 0.0354,-0.88175 0.004,-1.10179 -0.17524,-1.22696 -0.31973,-0.22331 -0.75035,-1.01276 -0.7983,-1.46354 -0.0406,-0.38177 -0.0282,-0.39059 0.50017,-0.35516 l 0.54181,0.0363 0.0868,-1.22221 c 0.0691,-0.97369 0.0464,-1.28384 -0.11187,-1.52534 -0.26522,-0.40477 -0.25038,-1.08212 0.0344,-1.56921 0.17789,-0.3043 0.22155,-0.62021 0.18715,-1.35432 l -0.0449,-0.957441 -1.30948,1.155879 -1.30949,1.155882 -0.002,0.92604 c -0.004,2.00092 0.14432,3.06208 0.47831,3.42227 0.26987,0.29105 0.31201,0.46979 0.31201,1.32349 0,1.22494 0.31418,2.03614 0.94502,2.43999 0.24422,0.15635 0.48416,0.28527 0.53319,0.2865 0.049,0.001 0.10856,-0.48127 0.13229,-1.07221 z m -5.73781,-2.02244 c -0.0389,-0.39934 -0.0609,-0.41168 -0.94264,-0.53017 -1.16174,-0.15612 -1.59656,-0.0189 -1.64948,0.52058 l -0.0387,0.39448 1.33535,0.012 1.33535,0.012 z m -1.17435,-4.0379 c 0.13433,-0.085 0.17952,-0.34003 0.15735,-0.88794 -0.0171,-0.42276 -0.0562,-0.79376 -0.0869,-0.82443 -0.0307,-0.0307 -0.28764,0.20553 -0.57103,0.52488 l -0.51527,0.58063 0.28139,0.35777 c 0.30422,0.38679 0.44265,0.43374 0.73442,0.24909 z m 1.12691,-0.6835 0.47058,-0.27765 -0.005,-1.27678 -0.005,-1.276775 -0.52374,0.579253 c -0.51037,0.564472 -0.52374,0.604142 -0.52374,1.554422 0,0.53635 0.0264,0.97518 0.0586,0.97518 0.0322,0 0.27035,-0.12494 0.52917,-0.27765 z m 5.157,-4.9929363 c 0.0448,-0.9211 0.11207,-1.9575 0.14947,-2.303112 l 0.068,-0.628386 -0.43451,0.002 c -0.79133,0.0037 -0.78895,-0.0041 -0.86635,2.848524 l -0.071,2.6179043 0.53647,-0.431115 0.53646,-0.431115 z m 0.72853,0.78532 c 0.24311,-0.341412 0.27359,-0.577262 0.27359,-2.116667 0,-1.625997 -0.0158,-1.732442 -0.25647,-1.732442 -0.30075,0 -0.35189,0.291046 -0.47071,2.678906 -0.0484,0.972004 -0.0291,1.5544273 0.0513,1.5544273 0.0708,0 0.2518,-0.172901 0.40227,-0.3842243 z m -6.00576,-1.019693 c 0.10401,-1.387277 0.0574,-1.500556 -0.61873,-1.504474 -0.43774,-0.0025 -0.51025,0.184989 -0.51025,1.319533 0,0.876102 0.0128,0.910975 0.42995,1.168846 0.23647,0.1461903 0.46904,0.2707333 0.51682,0.2767613 0.0478,0.006 0.12977,-0.5612723 0.18221,-1.2606663 z m -1.47848,-0.01822 c 0.0451,-0.272852 0.0827,-0.740883 0.0835,-1.04007 l 0.001,-0.543977 -0.74966,-0.150552 c -0.41231,-0.0828 -0.7649,-0.135309 -0.78353,-0.116678 -0.0186,0.01863 -0.0754,0.400809 -0.12613,0.849284 l -0.0922,0.815409 0.64427,0.335179 c 0.35435,0.184348 0.7109,0.337951 0.79233,0.341339 0.0814,0.0034 0.18496,-0.217083 0.23005,-0.489934 z m 9.44727,-1.938484 0.0664,-1.270191 -0.44799,0.08545 c -0.2464,0.047 -0.46544,0.09931 -0.48677,0.116246 -0.0213,0.01694 -0.0729,0.76741 -0.11451,1.667716 l -0.0757,1.63692 0.49606,-0.482974 c 0.49201,-0.479022 0.49661,-0.493366 0.56251,-1.753167 z m -11.46366,0.03748 c -0.0993,-0.09992 -1.07369,-0.25623 -1.07369,-0.172242 0,0.03292 0.22324,0.396676 0.49609,0.808334 l 0.49609,0.74847 0.0815,-0.651286 c 0.0448,-0.358208 0.0448,-0.688182 0,-0.733276 z m 12.8091,-1.379728 c 0.005,-0.08069 -0.17965,-0.116913 -0.43994,-0.08652 -0.3992,0.0466 -0.45644,0.104712 -0.52771,0.535675 -0.044,0.26587 -0.0754,0.781057 -0.0699,1.144859 l 0.01,0.661458 0.50987,-1.058333 c 0.28043,-0.582083 0.5134,-1.120794 0.5177,-1.197134 z M 81.041529,74.493168 c -1.20013,-0.81557 -1.40117,-3.10009 -0.3756,-4.26814 0.52071,-0.59306 0.7108,-0.5927 0.36069,6.9e-4 -0.35252,0.59748 -0.46837,1.85864 -0.24425,2.6591 0.17556,0.62705 0.69788,1.37684 0.95913,1.37684 0.0799,0 -0.0159,-0.16819 -0.2128,-0.37376 -0.43701,-0.45614 -0.62307,-1.04788 -0.63121,-2.00749 -0.007,-0.86607 0.17186,-1.3921 0.64223,-1.88516 1.06995,-1.12154 2.60885,0.41048 2.35261,2.34208 -0.15965,1.20353 -0.64149,1.77792 -1.65817,1.97668 -0.1819,0.0356 -0.048,0.0456 0.29766,0.0224 0.69562,-0.0468 0.80549,0.0667 0.29143,0.30088 -0.54049,0.24627 -1.29734,0.18504 -1.78172,-0.14413 z m -13.356738,-6.72915 c -1.508161,-0.60174 -1.905043,-3.16487 -0.69709,-4.50193 0.528937,-0.58547 0.834102,-0.68824 0.433547,-0.146 -0.707411,0.95763 -0.628456,2.92101 0.153268,3.81134 0.219751,0.25029 0.49756,0.45348 0.617353,0.45154 0.147531,-0.002 0.1005,-0.0762 -0.145764,-0.22893 -0.506331,-0.31393 -0.89336,-1.20214 -0.892463,-2.04814 0.0011,-1.03249 0.209507,-1.61304 0.749169,-2.08687 0.391237,-0.34351 0.554101,-0.4061 0.889755,-0.34194 1.466191,0.28027 1.902978,3.04531 0.675035,4.27325 -0.254348,0.25435 -0.358953,0.43615 -0.250947,0.43615 0.29795,0 0.213416,0.20927 -0.151745,0.37564 -0.402054,0.18319 -0.930091,0.18544 -1.380118,0.006 z m -17.594875,-7.09553 c -0.857982,-0.43107 -1.418346,-1.67125 -1.280977,-2.83502 0.08754,-0.7416 0.50137,-1.59986 0.90913,-1.88546 0.434023,-0.30401 0.589427,-0.25244 0.272659,0.0905 -0.824483,0.89253 -0.684282,3.21318 0.24117,3.9919 0.222666,0.18736 0.50446,0.3393 0.626208,0.33764 0.124688,-0.002 0.03576,-0.0945 -0.20362,-0.21255 -1.242333,-0.61255 -1.321074,-3.539 -0.116461,-4.32829 0.449775,-0.2947 0.896901,-0.27519 1.319994,0.0576 0.571027,0.44917 0.791628,1.01323 0.797372,2.03884 0.006,1.07592 -0.367448,1.95764 -0.939633,2.21835 l -0.34512,0.15725 0.317435,0.0779 c 0.313461,0.077 0.312135,0.0807 -0.105943,0.30048 -0.53866,0.28314 -0.915007,0.28082 -1.492214,-0.009 z"
       id="path1" /></g></svg>
